<?xml version="1.0" standalone="no"?><!DOCTYPE svg PUBLIC "-//W3C//DTD SVG 1.1//EN" "http://www.w3.org/Graphics/SVG/1.1/DTD/svg11.dtd"><svg t="1717788362134" class="icon" viewBox="0 0 1024 1024" version="1.1" xmlns="http://www.w3.org/2000/svg" p-id="1690" xmlns:xlink="http://www.w3.org/1999/xlink" width="200" height="200"><path d="M689.77344 198.272a225.536 225.536 0 0 1 154.688 17.92c48.128 24.576 82.688 64.64 97.28 112.768l75.072 246.848a169.408 169.408 0 0 1-15.744 134.72c-26.688 46.592-74.24 81.024-130.56 94.4-52.736 12.544-100.736 5.76-138.816-19.584-34.56-23.04-60.8-61.504-75.84-111.104l-0.128-0.512h-286.72c-27.008 88.704-86.976 137.344-165.12 137.344-16 0-32.64-1.984-50.048-6.144-56.256-13.44-103.872-47.808-130.56-94.4a169.344 169.344 0 0 1-15.744-134.72L82.54144 328.96c14.592-48.128 49.216-88.192 97.344-112.704a225.472 225.472 0 0 1 154.688-17.984c28.224 6.72 53.952 18.496 76.608 35.008h201.984a212.608 212.608 0 0 1 76.608-35.008z m198.72 146.88c-21.376-70.4-104.768-112-185.792-92.672a156.8 156.8 0 0 0-62.592 30.336l-7.68 6.144H391.85344l-7.68-6.144a156.672 156.672 0 0 0-62.592-30.336 173.44 173.44 0 0 0-40.192-4.736c-66.816 0-127.744 38.656-145.6 97.408L60.84544 592c-9.216 30.4-5.44 62.656 10.752 90.88 19.072 33.28 53.76 57.984 95.168 67.84 92.928 22.208 132.16-38.144 148.736-92.672l12.16-40h369.344l12.16 40c14.144 46.528 44.8 97.344 111.36 97.344a160 160 0 0 0 37.12-4.672c41.344-9.856 76.032-34.56 95.104-67.904 16.192-28.16 19.968-60.416 10.752-90.88zM292.65344 295.04c71.616 0 129.92 58.304 129.92 129.92 0 71.68-58.304 129.984-129.92 129.984-71.68 0-129.984-58.24-129.984-129.92 0-71.68 58.24-129.984 129.92-129.984z m404.928 129.92a46.464 46.464 0 1 1 0 92.928 46.464 46.464 0 0 1 0-92.864z m102.144 6.272a46.464 46.464 0 1 1 46.4 80.448 46.464 46.464 0 0 1-46.4-80.448zM292.58944 360a65.088 65.088 0 0 0 0 129.984c35.84 0 64.96-29.12 65.024-64.96 0-35.84-29.184-65.024-65.024-65.024z m435.84-33.792a46.4 46.4 0 1 1 63.68 67.584 46.4 46.4 0 0 1-63.68-67.584z" fill="#6D6D6D" p-id="1691"></path></svg>