<?xml version="1.0" standalone="no"?><!DOCTYPE svg PUBLIC "-//W3C//DTD SVG 1.1//EN" "http://www.w3.org/Graphics/SVG/1.1/DTD/svg11.dtd"><svg t="1717851834526" class="icon" viewBox="0 0 1024 1024" version="1.1" xmlns="http://www.w3.org/2000/svg" p-id="1903" xmlns:xlink="http://www.w3.org/1999/xlink" width="200" height="200"><path d="M64 880h896v128H64z m272.768-208l-0.464 102.144a32 32 0 0 0 49.168 27.168l126.8-80.592 127.808 81.456a32 32 0 0 0 49.2-26.272l0.224-10.224L854.848 816H64v-144h272.768zM65.216 575.696L171.376 608H64v-112l1.216 79.696z" fill="#F73B2F" p-id="1904" data-spm-anchor-id="a313x.manage_type_myprojects.0.i3.219b3a81SRqoiQ" class="selected"></path><path d="M48 608h16v64H48z m912 0h16v64h-16zM64 608h107.376l165.456 50.352-0.064 13.648H64v-64zM48 816h16v64H48z m912 0h16v64h-16z m0 64H64v-64h790.848L960 848v32z" fill="#FFFFFF" p-id="1905"></path><path d="M689.504 765.68l-0.224 10.224a32 32 0 1 1-49.2 26.272l-127.808-81.456-126.8 80.592a32 32 0 0 1-49.168-27.168L336.768 672H960v144h-105.152L960 848l-270.496-82.32zM65.216 575.696L64 496h896v112H171.376l165.456 50.352-271.616-82.656z" fill="#D23228" p-id="1906"></path><path d="M960 672H336.768l0.064-13.648L171.376 608H960v64z m0 176l-105.152-32H960v32z" fill="#D9D9D9" p-id="1907"></path><path d="M52.512 256s-38.928-236.512 112-240c139.232-3.216 220.544 113.024 236.912 138.928V256H52.512z m920.416 0s38.912-236.512-112-240C721.68 12.784 640.368 129.024 624 154.928 621.952 158.176 624 256 624 256h348.928z" fill="#FFD140" p-id="1908"></path><path d="M895.984 21.84C907.04 153.072 826.496 236.416 624 256h352c10.832-95.184-3.056-179.088-80.016-234.16z" fill="#CCA733" p-id="1909"></path><path d="M640 256v-48a80.064 80.064 0 0 0-23.424-56.576A80.064 80.064 0 0 0 560 128h-96a80.064 80.064 0 0 0-56.576 23.424A80.064 80.064 0 0 0 384 208v48" fill="#FFD140" p-id="1910"></path><path d="M640 256v-48a80.064 80.064 0 0 0-23.424-56.576A80.064 80.064 0 0 0 560 128h-16a80.064 80.064 0 0 0-56.576 23.424A80.064 80.064 0 0 0 464 208v48" fill="#CCA733" p-id="1911"></path><path d="M655.984 496H1008V256H16v240h350.656" fill="#F73B2F" p-id="1912" data-spm-anchor-id="a313x.manage_type_myprojects.0.i2.219b3a81SRqoiQ" class=""></path><path d="M640 256H384v496l126.528-80L640 752V256z" fill="#FFD140" p-id="1913" data-spm-anchor-id="a313x.manage_type_myprojects.0.i4.219b3a81SRqoiQ" class="selected"></path></svg>