<?xml version="1.0" standalone="no"?><!DOCTYPE svg PUBLIC "-//W3C//DTD SVG 1.1//EN" "http://www.w3.org/Graphics/SVG/1.1/DTD/svg11.dtd"><svg t="1717873678250" class="icon" viewBox="0 0 1228 1024" version="1.1" xmlns="http://www.w3.org/2000/svg" p-id="2770" xmlns:xlink="http://www.w3.org/1999/xlink" width="239.84375" height="200"><path d="M708.73088 588.8c193.7408 0 346.7264 158.72 346.7264 348.16C1055.45728 983.04 1014.66112 1024 968.704 1024H254.93504c-45.8752 0-86.67136-40.96-86.67136-87.04 0-194.56 152.94464-348.16 346.7264-348.16zM382.40256 471.04A268.61568 268.61568 0 0 0 453.8368 532.48c-152.9856 25.6-280.45312 133.12-331.40736 286.72h-56.1152C30.59712 814.08 0 783.36 0 747.52c0-153.6 122.38848-276.48 275.33312-276.48z m571.06432 0c147.8656 0 270.25408 122.88 275.33312 281.6C1228.8 788.48 1198.20288 819.2 1162.52672 819.2h-56.1152c-50.95424-153.6-178.42176-261.12-331.3664-286.72 25.47712-20.48 50.95424-35.84 71.35232-61.44zM611.86048 0c142.7456 0 254.93504 112.64 254.93504 256s-112.18944 256-254.93504 256c-142.78656 0-254.93504-112.64-254.93504-256S469.07392 0 611.86048 0zM351.80544 10.24c15.31904 0 35.71712 0 50.9952 5.12C336.52736 76.8 295.7312 163.84 295.7312 256c0 56.32 15.27808 107.52 40.79616 153.6-96.8704-15.36-168.26368-92.16-173.38368-189.44C158.1056 107.52 244.736 15.36 351.8464 10.24z m525.18912 0c96.8704 5.12 173.34272 76.8 188.66176 174.08 15.27808 107.52-61.19424 209.92-173.38368 225.28 25.51808-46.08 40.79616-102.4 40.79616-153.6 0-92.16-40.79616-179.2-107.06944-240.64 15.27808 0 35.67616-5.12 50.9952-5.12z" fill="#0091FF" p-id="2771"></path></svg>