<?xml version="1.0" standalone="no"?><!DOCTYPE svg PUBLIC "-//W3C//DTD SVG 1.1//EN" "http://www.w3.org/Graphics/SVG/1.1/DTD/svg11.dtd"><svg t="1717788140596" class="icon" viewBox="0 0 1024 1024" version="1.1" xmlns="http://www.w3.org/2000/svg" p-id="1963" xmlns:xlink="http://www.w3.org/1999/xlink" width="200" height="200"><path d="M512 469.333333a213.333333 213.333333 0 0 1 213.333333 213.333334v256h-85.333333v-256a128 128 0 0 0-120.490667-127.786667L512 554.666667a128 128 0 0 0-127.786667 120.490666L384 682.666667v256H298.666667v-256a213.333333 213.333333 0 0 1 213.333333-213.333334z m-277.333333 128c11.904 0 23.466667 1.408 34.56 4.010667a253.738667 253.738667 0 0 0-12.842667 67.2L256 682.666667v3.669333a63.658667 63.658667 0 0 0-15.189333-3.413333L234.666667 682.666667a64 64 0 0 0-63.701334 57.856L170.666667 746.666667V938.666667H85.333333v-192A149.333333 149.333333 0 0 1 234.666667 597.333333z m554.666666 0a149.333333 149.333333 0 0 1 149.333334 149.333334V938.666667h-85.333334v-192a64 64 0 0 0-57.856-63.701334L789.333333 682.666667c-7.466667 0-14.634667 1.28-21.333333 3.626666V682.666667c0-28.416-4.608-55.722667-13.184-81.237334A145.92 145.92 0 0 1 789.333333 597.333333z m-554.666666-256a106.666667 106.666667 0 1 1 0 213.333334 106.666667 106.666667 0 0 1 0-213.333334z m554.666666 0a106.666667 106.666667 0 1 1 0 213.333334 106.666667 106.666667 0 0 1 0-213.333334z m-554.666666 85.333334a21.333333 21.333333 0 1 0 0 42.666666 21.333333 21.333333 0 0 0 0-42.666666z m554.666666 0a21.333333 21.333333 0 1 0 0 42.666666 21.333333 21.333333 0 0 0 0-42.666666zM512 85.333333a170.666667 170.666667 0 1 1 0 341.333334 170.666667 170.666667 0 0 1 0-341.333334z m0 85.333334a85.333333 85.333333 0 1 0 0 170.666666 85.333333 85.333333 0 0 0 0-170.666666z" p-id="1964"></path></svg>