<?xml version="1.0" standalone="no"?><!DOCTYPE svg PUBLIC "-//W3C//DTD SVG 1.1//EN" "http://www.w3.org/Graphics/SVG/1.1/DTD/svg11.dtd"><svg t="1717873164902" class="icon" viewBox="0 0 1024 1024" version="1.1" xmlns="http://www.w3.org/2000/svg" p-id="1969" xmlns:xlink="http://www.w3.org/1999/xlink" width="200" height="200"><path d="M154.416597 97.316225h729.151281L1006.552664 329.060847c7.785298 16.580597 12.159923 35.132078 12.159923 54.691513 0 71.128848-57.671375 128.800224-128.800223 128.800224-61.900692 0-113.612344-43.685878-125.964648-101.886301-12.399376 58.200424-64.063957 101.886301-125.965672 101.886301s-113.612344-43.685878-125.964648-101.934396c-12.387097 58.248519-64.099772 101.934397-126.000464 101.934396-61.901715 0-113.589831-43.685878-125.964648-101.886301-12.351281 58.200424-64.063957 101.886301-125.964648 101.886301-71.127825 0-128.800224-57.671375-128.800223-128.800224 0-19.560459 4.372579-38.110917 12.1589-54.691513L154.416597 97.316225zM927.253755 557.537035v320.029164c0 27.010113-22.107463 49.117576-49.117576 49.117576H145.862797c-27.010113 0-49.093017-22.107463-49.093016-49.117576V557.537035h97.801271v162.441348h634.833337V557.537035h97.849366z" fill="#1296db" p-id="1970"></path></svg>