<?xml version="1.0" standalone="no"?><!DOCTYPE svg PUBLIC "-//W3C//DTD SVG 1.1//EN" "http://www.w3.org/Graphics/SVG/1.1/DTD/svg11.dtd"><svg t="1717788147016" class="icon" viewBox="0 0 1024 1024" version="1.1" xmlns="http://www.w3.org/2000/svg" p-id="2110" xmlns:xlink="http://www.w3.org/1999/xlink" width="200" height="200"><path d="M226.304 886.21056c-22.528 0-41.7792-7.9872-57.87648-24.04352a78.88896 78.88896 0 0 1-24.04352-57.87648v-325.632c-15.68768-14.336-27.8528-32.768-36.37248-55.296-8.51968-22.528-8.68352-47.104-0.49152-73.728l43.008-139.264a90.5216 90.5216 0 0 1 29.16352-44.032 73.9328 73.9328 0 0 1 48.66048-17.408h569.344c18.432 0 34.48832 5.65248 48.128 16.91648 13.63968 11.264 23.552 26.09152 29.696 44.52352l43.008 139.264c8.192 26.624 8.02816 50.87232-0.49152 72.704a161.95584 161.95584 0 0 1-36.37248 56.32v325.632c0 22.528-8.02816 41.82016-24.04352 57.87648a78.88896 78.88896 0 0 1-57.87648 24.04352h-573.44z m376.832-450.56c18.432 0 32.44032-6.30784 41.984-18.92352 9.54368-12.61568 13.312-26.78784 11.264-42.51648l-22.528-143.36h-79.872v151.552c0 14.336 4.79232 26.8288 14.336 37.39648 9.54368 10.56768 21.17632 15.85152 34.816 15.85152z m-184.32 0c15.68768 0 28.50816-5.28384 38.42048-15.85152 9.87136-10.56768 14.82752-23.06048 14.82752-37.39648v-151.552h-79.872l-22.528 143.36c-2.74432 16.384 0.8192 30.72 10.73152 43.008 9.91232 12.288 22.7328 18.432 38.42048 18.432z m-182.272 0c12.288 0 23.01952-4.42368 32.23552-13.312 9.216-8.84736 14.86848-20.11136 16.91648-33.792l22.528-157.696h-79.872l-40.96 137.216c-4.096 13.68064-1.88416 28.34432 6.63552 44.032 8.56064 15.72864 22.7328 23.552 42.51648 23.552z m552.96 0c19.78368 0 34.11968-7.82336 43.008-23.552 8.88832-15.68768 10.93632-30.35136 6.144-44.032l-43.008-137.216h-77.824l22.528 157.696c2.048 13.68064 7.70048 24.94464 16.91648 33.792a45.056 45.056 0 0 0 32.23552 13.312z m-563.2 368.64h573.44v-288.768a24.82176 24.82176 0 0 1-6.63552 2.048h-3.60448a120.0128 120.0128 0 0 1-48.66048-9.216c-13.96736-6.144-27.81184-16.01536-41.45152-29.696a135.168 135.168 0 0 1-41.984 28.672 124.5184 124.5184 0 0 1-50.176 10.24c-18.432 0-35.6352-3.39968-51.69152-10.24a133.44768 133.44768 0 0 1-42.51648-28.672 124.928 124.928 0 0 1-40.46848 28.672c-15.36 6.84032-31.90784 10.24-49.64352 10.24-19.78368 0-37.6832-3.39968-53.78048-10.24a133.44768 133.44768 0 0 1-42.47552-28.672c-14.336 14.336-28.50816 24.41216-42.51648 30.22848-13.96736 5.81632-29.85984 8.68352-47.59552 8.68352h-4.62848a10.40384 10.40384 0 0 1-5.61152-2.048v288.768z" p-id="2111"></path></svg>