<?xml version="1.0" standalone="no"?><!DOCTYPE svg PUBLIC "-//W3C//DTD SVG 1.1//EN" "http://www.w3.org/Graphics/SVG/1.1/DTD/svg11.dtd"><svg t="1717873509073" class="icon" viewBox="0 0 1024 1024" version="1.1" xmlns="http://www.w3.org/2000/svg" p-id="2619" xmlns:xlink="http://www.w3.org/1999/xlink" width="200" height="200"><path d="M535.04 737.024a164.8384 164.8384 0 1 1 0 0.5888z m152.5248-82.4832v86.6048c0 0.64 0.5632 0.64 0.5632 1.2288l0.5888 0.5632c0 0.5888 0.5632 0.5888 0.5632 1.1776l0.5888 0.5888c0 0.5632 0 0.5632 0.5632 1.2032l0.5888 0.5888c0.6144 0 0.6144 0.5632 1.1776 0.5632l90.8032 53.0432a10.88 10.88 0 0 0 15.0528-2.9952 9.8048 9.8048 0 0 0 0.64-1.1264 13.2864 13.2864 0 0 0-2.8928-16.4864l-84.992-49.5104v-75.4432a11.648 11.648 0 0 0-23.2704 0zM211.712 862.72a415.9488 415.9488 0 0 1 1.664-72.96 220.4672 220.4672 0 0 1 13.3376-57.1392A77.7728 77.7728 0 0 1 258.56 692.0192c16.4864-9.3184 30.9248-16.8448 42.5216-22.912C332.8 652.5952 351.9488 642.56 362.4192 624.64a18.176 18.176 0 0 1 5.9904-5.6832 8.064 8.064 0 0 1-4.096-7.5008 59.4688 59.4688 0 0 0-0.6144-16.2304 12.6464 12.6464 0 0 1-0.9216-1.1264 77.2864 77.2864 0 0 1-8.064 0.384c-13.4656 0-30.72-3.2-36.6592-18.4064a187.264 187.264 0 0 1-8.6016-26.1632 143.7696 143.7696 0 0 0-6.016-18.9184c-5.12-11.52-20.6592-89.9072-22.1184-98.6624a287.5904 287.5904 0 0 1-0.896-32.5376 71.9616 71.9616 0 0 0-3.1744-14.8736 61.2864 61.2864 0 0 1-2.816-12.672c0.1792-1.9712 0.384-4.0448 0.7168-6.4-1.28 4.3008-2.56 5.2736-2.56 5.376a274.3552 274.3552 0 0 0 1.536-46.3104c0-1.5616 0.2048-3.2 0.4608-5.12 0-3.1744 0.1792-5.632 0.3584-7.68-0.7168 1.28-1.28 1.92-1.536 1.92a0.4096 0.4096 0 0 1-0.2304 0c-0.3584-0.4096-0.3584-2.0736 0-5.12a109.9008 109.9008 0 0 0-12.416-52.2752 44.544 44.544 0 0 0 8.4224 5.8368 72.6016 72.6016 0 0 1-15.7696-37.9648 23.6544 23.6544 0 0 0 22.8864 12.4928 92.672 92.672 0 0 0 35.456-9.6512 258.7904 258.7904 0 0 1 58.5728-41.4976 173.056 173.056 0 0 1 78.6176-20.1984 148.224 148.224 0 0 1 75.136 20.7872 188.7744 188.7744 0 0 1 72.0384 70.9632c18.048 48.896 22.1952 92.16 12.3648 128.8448a132.9408 132.9408 0 0 1-43.52 68.2752 213.248 213.248 0 0 1-14.4128 20.48 19.6096 19.6096 0 0 1-15.0016 6.9632 19.4048 19.4048 0 0 1-11.2384-3.5584l-1.1776 2.1248c-0.1536 24.1664 1.6896 67.84 15.8976 88.6784a4.0192 4.0192 0 0 1-0.8192 5.4784c-5.12 3.84-10.624 7.68-15.9232 11.1104l14.6688-1.6128h1.1008l0.128-0.1792a1.4336 1.4336 0 0 1 0.4352 0.2304c7.8592 4.3776 15.6928 8.96 20.864 11.9808a198.8352 198.8352 0 0 0-8.96 266.752z" fill="#D17614" p-id="2620"></path></svg>